REM DIRINDEX 1\2,1\3,1\4,1\5
REM DIRNAME "folder01","folder02","folder03","folder04","folder05"
TITLE ""
FILE "1Q_t_0201-0209.mp3" MP3
  TRACK 01 AUDIO
    TITLE "0:"
    INDEX 01 00:00:00
  TRACK 02 AUDIO
    TITLE "2:cjc172_1518"
    INDEX 01 00:00:08
  TRACK 03 AUDIO
    TITLE "0:"
    INDEX 01 00:01:43
  TRACK 04 AUDIO
    TITLE "2:cjc172_1519"
    INDEX 01 00:02:21
  TRACK 05 AUDIO
    TITLE "0:"
    INDEX 01 00:03:22
  TRACK 06 AUDIO
    TITLE "3:cjc172_1520"
    INDEX 01 00:03:75
  TRACK 07 AUDIO
    TITLE "0:"
    INDEX 01 00:05:35
  TRACK 08 AUDIO
    TITLE "4:cjc172_1521"
    INDEX 01 00:05:51
  TRACK 09 AUDIO
    TITLE "0:"
    INDEX 01 00:07:44
  TRACK 10 AUDIO
    TITLE "5:cjc172_1522"
    INDEX 01 00:07:61
  TRACK 11 AUDIO
    TITLE "0:"
    INDEX 01 00:14:40
  TRACK 12 AUDIO
    TITLE "3:cjc172_1523"
    INDEX 01 00:15:20
  TRACK 13 AUDIO
    TITLE "0:"
    INDEX 01 00:16:11
  TRACK 14 AUDIO
    TITLE "4:cjc172_1524"
    INDEX 01 00:16:29
  TRACK 15 AUDIO
    TITLE "0:"
    INDEX 01 00:17:73
  TRACK 16 AUDIO
    TITLE "5:cjc172_1525"
    INDEX 01 00:18:14
  TRACK 17 AUDIO
    TITLE "0:"
    INDEX 01 00:23:43
  TRACK 18 AUDIO
    TITLE "3:cjc172_1526"
    INDEX 01 00:24:19
  TRACK 19 AUDIO
    TITLE "0:"
    INDEX 01 00:25:30
  TRACK 20 AUDIO
    TITLE "4:cjc172_1527"
    INDEX 01 00:25:46
  TRACK 21 AUDIO
    TITLE "0:"
    INDEX 01 00:28:30
  TRACK 22 AUDIO
    TITLE "5:cjc172_1528"
    INDEX 01 00:28:46
  TRACK 23 AUDIO
    TITLE "0:"
    INDEX 01 00:33:08
  TRACK 24 AUDIO
    TITLE "3:cjc172_1529"
    INDEX 01 00:33:67
  TRACK 25 AUDIO
    TITLE "0:"
    INDEX 01 00:35:24
  TRACK 26 AUDIO
    TITLE "4:cjc172_1530"
    INDEX 01 00:35:40
  TRACK 27 AUDIO
    TITLE "0:"
    INDEX 01 00:37:08
  TRACK 28 AUDIO
    TITLE "5:cjc172_1531"
    INDEX 01 00:37:21
  TRACK 29 AUDIO
    TITLE "0:"
    INDEX 01 00:41:72
  TRACK 30 AUDIO
    TITLE "3:cjc172_1532"
    INDEX 01 00:42:50
  TRACK 31 AUDIO
    TITLE "0:"
    INDEX 01 00:43:67
  TRACK 32 AUDIO
    TITLE "4:cjc172_1533"
    INDEX 01 00:44:08
  TRACK 33 AUDIO
    TITLE "0:"
    INDEX 01 00:45:52
  TRACK 34 AUDIO
    TITLE "5:cjc172_1534"
    INDEX 01 00:45:66
  TRACK 35 AUDIO
    TITLE "0:"
    INDEX 01 00:50:45
  TRACK 36 AUDIO
    TITLE "3:cjc172_1535"
    INDEX 01 00:51:23
  TRACK 37 AUDIO
    TITLE "0:"
    INDEX 01 00:52:48
  TRACK 38 AUDIO
    TITLE "4:cjc172_1536"
    INDEX 01 00:52:66
  TRACK 39 AUDIO
    TITLE "0:"
    INDEX 01 00:56:44
  TRACK 40 AUDIO
    TITLE "5:cjc172_1537"
    INDEX 01 00:56:60
  TRACK 41 AUDIO
    TITLE "0:"
    INDEX 01 01:01:53
  TRACK 42 AUDIO
    TITLE "3:cjc172_1538"
    INDEX 01 01:02:29
  TRACK 43 AUDIO
    TITLE "0:"
    INDEX 01 01:03:36
  TRACK 44 AUDIO
    TITLE "4:cjc172_1539"
    INDEX 01 01:03:54
  TRACK 45 AUDIO
    TITLE "0:"
    INDEX 01 01:05:51
  TRACK 46 AUDIO
    TITLE "5:cjc172_1540"
    INDEX 01 01:05:65
  TRACK 47 AUDIO
    TITLE "0:"
    INDEX 01 01:11:16
  TRACK 48 AUDIO
    TITLE "3:cjc172_1541"
    INDEX 01 01:11:71
  TRACK 49 AUDIO
    TITLE "0:"
    INDEX 01 01:12:65
  TRACK 50 AUDIO
    TITLE "4:cjc172_1542"
    INDEX 01 01:13:05
  TRACK 51 AUDIO
    TITLE "0:"
    INDEX 01 01:15:30
  TRACK 52 AUDIO
    TITLE "5:cjc172_1543"
    INDEX 01 01:15:43
  TRACK 53 AUDIO
    TITLE "0:"
    INDEX 01 01:19:43
  TRACK 54 AUDIO
    TITLE "3:cjc172_1544"
    INDEX 01 01:20:23
  TRACK 55 AUDIO
    TITLE "0:"
    INDEX 01 01:21:44
  TRACK 56 AUDIO
    TITLE "4:cjc172_1545"
    INDEX 01 01:21:64
  TRACK 57 AUDIO
    TITLE "0:"
    INDEX 01 01:25:12
  TRACK 58 AUDIO
    TITLE "5:cjc172_1546"
    INDEX 01 01:25:26
  TRACK 59 AUDIO
    TITLE "0:"
    INDEX 01 01:30:53
